<?xml version="1.0" encoding="UTF-8" standalone="no"?>
<!DOCTYPE svg PUBLIC "-//W3C//DTD SVG 1.1//EN" "http://www.w3.org/Graphics/SVG/1.1/DTD/svg11.dtd">
<svg width="100%" height="100%" viewBox="0 0 32 32" version="1.1" xmlns="http://www.w3.org/2000/svg" xmlns:xlink="http://www.w3.org/1999/xlink" xml:space="preserve" xmlns:serif="http://www.serif.com/" style="fill-rule:evenodd;clip-rule:evenodd;stroke-linejoin:round;stroke-miterlimit:2;">
    <g transform="matrix(1.06252,0,0,1.06252,-1.22681,-0.999723)">
        <path d="M10.64,10.47L9.475,11.992L5.698,17.083L9.215,21.205L8.929,23.533L6.271,23.276L4.056,20.474L1.871,18.023L1.339,16.945L1.91,16.08L3.992,14.069L8.351,10.041L10.29,9.328L10.64,10.47ZM17.765,8.212L19.693,10.297L22.981,13.979L24.353,17.095L22.713,18.642L19.629,21.838L17.198,23.787L14.539,21.979L12.02,20.263L9.811,17.287L8.734,15.398L10.702,13.825L14.937,10.32L17.765,8.212ZM21.959,10.184L22.945,8.82L25.287,9.22L26.57,11.15L31.087,18.151L27.211,21.635L24.478,23.78L21.977,23.578L22.383,22.164L24.496,19.335L26.638,16.925L24.666,13.944L21.959,10.184Z" style="fill:white;"/>
    </g>
</svg>
