<?xml version="1.0" encoding="utf-8"?>
<!-- Generator: Adobe Illustrator 27.4.1, SVG Export Plug-In . SVG Version: 6.00 Build 0)  -->
<svg version="1.1" id="Layer_1" xmlns="http://www.w3.org/2000/svg" xmlns:xlink="http://www.w3.org/1999/xlink" x="0px" y="0px"
	 viewBox="0 0 800 800" style="enable-background:new 0 0 800 800;" xml:space="preserve">
<style type="text/css">
	.st0{fill:#FFFFFF;}
</style>
<g>
	<g>
		<path class="st0" d="M767.7,429.4c0-72-58.4-130.5-130.5-130.5H626c-30.9-53.4-80.1-94.8-139-115.6V125c0-48-38.9-87-87-87
			s-87,38.9-87,87v58.4c-58.9,20.8-108.2,62.2-139,115.6h-11.2c-72.1,0-130.5,58.4-130.5,130.5h106.8c0,63,22.3,120.8,59.5,165.8
			c-31.2,55.2-18.3,126.4,33.1,166.7l70.9-90.4c30.1,12.1,62.9,18.8,97.4,18.8s67.3-6.7,97.4-18.8l70.9,90.4
			c51.4-40.3,64.3-111.5,33.1-166.7c37.2-45.1,59.5-102.9,59.5-165.8H767.7z M400,233.7c31.2,0,60.8,7.4,87,20.4l-44.3,61h-85.4
			l-44.3-61C339.2,241.1,368.8,233.7,400,233.7z M206.4,458c-1.4-9.4-2.1-18.9-2.1-28.6c0-53.2,21.4-101.5,56-136.9l44.2,60.9
			l-26.4,81.3L206.4,458z M367.4,622.4c-61.2-10.3-112.8-49.1-140.7-102.3l71.6-23.3l69.2,50.3L367.4,622.4z M342.3,448.2l22-67.9
			h71.3l22,67.9L400,490.1L342.3,448.2z M432.6,622.4l0-75.3l69.2-50.3l71.6,23.3C545.5,573.2,493.8,612,432.6,622.4z M593.6,458
			l-71.7-23.3l-26.4-81.3l44.2-60.9c34.6,35.3,56,83.6,56,136.9C595.7,439.1,595,448.7,593.6,458z"/>
	</g>
</g>
</svg>
