<?xml version="1.0" encoding="utf-8"?>
<!-- Generator: Adobe Illustrator 27.4.1, SVG Export Plug-In . SVG Version: 6.00 Build 0)  -->
<svg version="1.1" id="Layer_1" xmlns:serif="http://www.serif.com/"
	 xmlns="http://www.w3.org/2000/svg" xmlns:xlink="http://www.w3.org/1999/xlink" x="0px" y="0px" viewBox="0 0 1080 1080"
	 style="enable-background:new 0 0 1080 1080;" xml:space="preserve">
<style type="text/css">
	.st0{fill-rule:evenodd;clip-rule:evenodd;fill:#FFFFFF;}
</style>
<path class="st0" d="M282.8,597.8l-171-39.8c-7.6-1.7-13-8.4-13.3-16.2c-0.2-7.8,4.8-14.8,12.3-17l171.4-51.1
	c9.9-42.8,30.1-81.8,57.7-114.1l-28.4-140.8c-1.4-7,1.7-14.2,7.7-18c6.1-3.8,13.8-3.5,19.5,0.8l108.2,81.8
	c30.4-11.9,63.4-18.4,98-18.4c5.2,0,10.3,0.1,15.4,0.4l152.4-154.2c4.9-5,12.4-6.5,18.9-3.7c6.5,2.7,10.6,9.2,10.5,16.2L737.7,346
	c12.8,13,24.2,27.3,34.1,42.6c2,0.5,4.2,0.7,6.3,0.4l185.9-24.5c7.7-1,15.1,3.3,18.1,10.4c3,7.2,0.8,15.5-5.4,20.2L814.4,519.8
	c0.3,4.9,0.4,9.9,0.4,14.8c0,25.8-3.6,50.6-10.4,74.2l89.5,102.4c4.8,5.5,5.6,13.5,1.9,19.9c-3.6,6.3-11,9.7-18.2,8.3L746.5,714
	c-20.3,22.7-44.4,42.1-71.2,56.9l-56.6,198.3c-1.3,4.6-5.2,8-10,8.6c-4.8,0.6-9.5-1.8-11.9-6l-98.5-171.6
	c-33.5-5.9-64.9-17.9-92.9-34.9l-67.2,47c-6.4,4.4-15,4.1-21-1c-6-5.1-7.8-13.5-4.4-20.5l34.7-72.7
	C316.5,684.7,293.8,643.6,282.8,597.8z"/>
</svg>
