<?xml version="1.0" encoding="UTF-8" standalone="no"?>
<!DOCTYPE svg PUBLIC "-//W3C//DTD SVG 1.1//EN" "http://www.w3.org/Graphics/SVG/1.1/DTD/svg11.dtd">
<svg width="100%" height="100%" viewBox="0 0 32 32" version="1.1" xmlns="http://www.w3.org/2000/svg" xmlns:xlink="http://www.w3.org/1999/xlink" xml:space="preserve" xmlns:serif="http://www.serif.com/" style="fill-rule:evenodd;clip-rule:evenodd;stroke-linejoin:round;stroke-miterlimit:2;">
    <path d="M10.568,17.24L6.951,16.398C6.791,16.361 6.675,16.22 6.67,16.055C6.665,15.89 6.772,15.742 6.93,15.695L10.557,14.613C10.767,13.707 11.193,12.883 11.778,12.199L11.177,9.22C11.147,9.071 11.212,8.92 11.34,8.84C11.468,8.759 11.633,8.766 11.753,8.857L14.043,10.587C14.686,10.336 15.385,10.198 16.116,10.198C16.225,10.198 16.333,10.201 16.441,10.207L19.665,6.944C19.769,6.838 19.928,6.807 20.065,6.865C20.202,6.923 20.29,7.059 20.287,7.208L20.191,11.912C20.461,12.186 20.702,12.489 20.912,12.813C20.955,12.824 21.001,12.827 21.046,12.821L24.98,12.302C25.143,12.28 25.3,12.371 25.363,12.523C25.426,12.675 25.379,12.851 25.249,12.951L21.813,15.589C21.819,15.693 21.822,15.798 21.822,15.903C21.822,16.448 21.745,16.974 21.603,17.473L23.496,19.64C23.598,19.757 23.615,19.926 23.537,20.061C23.46,20.195 23.305,20.266 23.153,20.236L20.377,19.697C19.948,20.178 19.438,20.587 18.87,20.901L17.672,25.097C17.644,25.195 17.561,25.266 17.46,25.279C17.359,25.291 17.26,25.241 17.209,25.153L15.125,21.523C14.417,21.399 13.753,21.144 13.16,20.784L11.738,21.779C11.602,21.873 11.42,21.865 11.294,21.758C11.168,21.651 11.129,21.473 11.201,21.324L11.936,19.785C11.28,19.079 10.801,18.208 10.568,17.24Z" style="fill:white;"/>
</svg>
